<?xml version="1.0" encoding="UTF-8"?>
<svg width="300px" height="120px" viewBox="0 0 320 100" version="1.1" xmlns="http://www.w3.org/2000/svg" xmlns:xlink="http://www.w3.org/1999/xlink">
    <title>logo-senat</title>

    <defs>
        <polygon id="path-1" points="0.34482242 0.086336 133.186661 0.086336 133.186661 32.2126616 0.34482242 32.2126616"></polygon>
    </defs>
    <g id="logo-senat" stroke="none" stroke-width="1" fill="none" fill-rule="evenodd">
        <g id="Group" transform="translate(26.023166, 6.833138)">
            <g id="Group-7" transform="translate(126.045560, 5.382314)">
                <mask id="mask-2" fill="white">
                    <use xlink:href="#path-1"></use>
                </mask>
                <g id="Clip-2"></g>
                <path d="M26.5752908,19.2415943 C31.3828343,19.2415943 33.8951119,17.0481932 33.8951119,13.5280845 C33.8951119,10.3653202 31.7423017,8.56793131 28.369965,8.56793131 C22.0180432,8.56793131 18.7522154,14.1014356 18.7522154,19.2762621 C18.7522154,23.5537275 21.4069486,26.3924819 25.2465928,26.3924819 C26.6485157,26.3924819 29.4457045,25.8897997 31.0246983,25.3511164 L31.0246983,21.9016765 C28.8013259,22.3310231 27.830764,22.4763609 26.5752908,22.4763609 C24.4917113,22.4763609 23.7394925,20.8589776 23.7394925,19.2415943 L26.5752908,19.2415943 Z M24.2786936,16.4375077 C24.6727764,14.1734378 26.2877169,12.6293901 27.4726279,12.6293901 C28.1529532,12.6293901 28.7281011,12.9520667 28.7281011,13.8867623 C28.7281011,15.1081333 27.5085747,16.4375077 25.7857939,16.4375077 L24.2786936,16.4375077 Z M7.52085656,15.1081333 C8.38357829,14.1734378 9.96124072,13.3480789 10.8585778,13.3480789 C12.0062107,13.3480789 12.4016249,14.4267789 12.4016249,15.3228066 C12.4016249,17.5508754 10.7161222,22.4763609 7.736537,22.4763609 C7.27056075,22.4763609 6.01508762,22.2963553 6.01508762,22.2963553 L7.52085656,15.1081333 Z M9.49659583,4.4344703 L9.49659583,0.158338224 L1.49245534,0.158338224 L1.49245534,4.4344703 L4.43609383,4.4344703 L0.34482242,26.0338041 L2.92766217,26.0338041 C4.32825362,26.0338041 5.8699693,26.3924819 7.63002814,26.3924819 C13.800885,26.3924819 17.388902,19.7802776 17.388902,14.46278 C17.388902,10.4013213 15.7033994,8.56793131 13.6198199,8.56793131 C11.4337256,8.56793131 9.31553078,10.0773113 8.16789786,11.1186768 L9.49659583,4.4344703 L9.49659583,4.4344703 Z" id="Fill-1" fill="#000000" mask="url(#mask-2)"></path>
                <polyline id="Fill-3" fill="#000000" mask="url(#mask-2)" points="62.5979171 0.086336 62.5979171 12.4827189 71.9946609 12.4827189 71.9946609 15.6201491 56.1807586 15.6201491 56.1807586 32.2926641 59.2175923 32.2926641 59.2175923 18.5802406 62.5979171 18.5802406 62.5979171 32.2926641 65.6294254 32.2926641 65.6294254 18.5802406 68.9631526 18.5802406 68.9631526 32.2926641 71.9946609 32.2926641 71.9946609 26.093806 133.186661 26.093806 133.186661 0.086336 62.5979171 0.086336"></polyline>
                <polygon id="Fill-4" fill="#000000" mask="url(#mask-2)" points="37.0464427 32.2126616 40.0766196 32.2126616 40.0766196 18.5189053 37.0464427 18.5189053"></polygon>
                <polygon id="Fill-5" fill="#000000" mask="url(#mask-2)" points="43.4356427 32.2126616 46.4644882 32.2126616 46.4644882 18.5189053 43.4356427 18.5189053"></polygon>
                <polygon id="Fill-6" fill="#000000" mask="url(#mask-2)" points="49.8235113 32.2126616 52.8536882 32.2126616 52.8536882 18.5189053 49.8235113 18.5189053"></polygon>
            </g>
            <polygon id="Fill-8" fill="#000000" points="163.546718 21.0077969 182.297297 21.0077969 182.297297 17.8827003 163.546718 17.8827003"></polygon>
            <path d="M178.130502,13.715905 C178.130502,12.5656698 179.064503,11.6325073 180.213275,11.6325073 C181.365793,11.6325073 182.297297,12.5656698 182.297297,13.715905 C182.297297,14.8661401 181.365793,15.7993026 180.213275,15.7993026 C179.064503,15.7993026 178.130502,14.8661401 178.130502,13.715905" id="Fill-9" fill="#000000"></path>
            <path d="M243.221397,24.9952973 L245.078643,24.9952973 L245.078643,20.6241557 C245.078643,20.6241557 245.000811,19.7995105 245.309457,18.9278918 C245.604684,18.086284 246.28639,17.1285473 247.663221,17.0476485 C249.27355,16.9523968 249.178272,18.6812812 249.178272,18.6812812 L249.178272,24.9952973 L251.047595,24.9952973 L251.047595,18.4829488 C251.047595,18.4829488 251.200576,15.8837506 248.705909,15.7832795 C245.670439,15.6632362 245.078643,17.5239073 245.078643,17.5239073 L245.078643,15.8837506 C245.078643,15.8837506 244.42646,15.8602638 243.377062,15.9176758 C242.378659,15.973783 241.655353,16.0377191 241.655353,16.0377191 L241.655353,17.0045895 L243.221397,17.1833497 L243.221397,24.9952973 Z M237.024316,17.195093 L235.420696,16.9850173 L235.420696,16.0207565 C236.043357,15.9659541 236.356029,15.9398577 237.024316,15.9150662 C237.832164,15.8837506 238.442747,15.8602638 238.842645,15.8837506 L238.842645,23.7439765 L240.522755,23.991892 L240.522755,24.9952973 L235.420696,24.9952973 L235.420696,23.991892 L237.024316,23.7439765 L237.024316,17.195093 Z M236.616366,13.3041246 C236.616366,12.6282287 237.177297,12.0828146 237.87108,12.0828146 C238.562179,12.0828146 239.123111,12.6282287 239.123111,13.3041246 C239.123111,13.9761061 238.562179,14.5215202 237.87108,14.5215202 C237.177297,14.5215202 236.616366,13.9761061 236.616366,13.3041246 L236.616366,13.3041246 Z M230.59642,12.8500478 C230.59642,12.8500478 230.14687,12.7808924 229.858353,12.7456623 C229.536287,12.7065178 229.031717,12.6647636 229.031717,12.6647636 L229.031717,11.7252944 C229.031717,11.7252944 230.172367,11.6509197 230.90104,11.6365667 C231.519675,11.627433 232.480505,11.6365667 232.480505,11.6365667 L232.480505,23.7439765 L234.058627,23.991892 L234.058627,24.9952973 L229.031717,24.9952973 L229.031717,23.991892 L230.59642,23.7439765 L230.59642,12.8500478 Z M215.376129,20.41408 L221.421572,20.41408 C221.421572,20.41408 222.020077,15.5888616 217.744655,15.6854182 C213.95233,15.7715362 213.556458,19.0766411 213.530961,20.4636631 C213.510832,21.5949406 213.776536,23.5417296 215.291587,24.530782 C215.912906,24.9391901 217.175672,25.2236405 218.418309,25.1675333 C219.537487,25.1179502 221.013622,24.5855843 221.013622,24.5855843 L221.013622,23.186819 C221.013622,23.186819 219.812585,23.7178801 218.200914,23.7439765 C215.046012,23.7948644 215.376129,20.41408 215.376129,20.41408 L215.376129,20.41408 Z M217.704396,16.9041185 C219.78843,16.9693594 219.576404,19.0596785 219.576404,19.0596785 L215.503614,19.0596785 C215.503614,19.0596785 215.707589,16.8440969 217.704396,16.9041185 L217.704396,16.9041185 Z M225.786905,17.6648276 L225.786905,15.8837506 C225.786905,15.8837506 224.697249,15.8837506 224.00615,15.9098469 C223.395567,15.9294192 222.438763,15.9946601 222.438763,15.9946601 L222.438763,16.9719691 L224.00615,17.1716063 L224.00615,24.9952973 L225.837898,24.9952973 L225.837898,20.8603279 C225.837898,20.8603279 225.761408,18.897881 226.70345,17.920572 C227.363685,17.2329328 228.751252,17.5056398 228.751252,17.5056398 L228.751252,15.7832795 C228.751252,15.7832795 227.638783,15.643664 226.805438,16.1381901 C226.016377,16.6053151 225.786905,17.6648276 225.786905,17.6648276 L225.786905,17.6648276 Z M202.815565,13.3889378 C202.370041,13.3276113 202.089575,13.2480174 202.089575,13.2480174 L202.089575,12.2146013 C202.089575,12.2146013 202.94305,12.2315639 203.922666,12.2433073 C204.900941,12.2563554 205.755757,12.1819808 206.951426,12.1819808 C209.168312,12.1819808 211.593199,12.4781746 211.71129,15.2039402 C211.813277,17.5539181 209.3951,18.2350333 209.3951,18.2350333 C209.3951,18.2350333 212.093743,18.5938583 212.003833,21.3665974 C211.879032,25.2549562 206.925929,24.9952973 206.925929,24.9952973 L202.089575,24.9952973 L202.089575,23.991892 L203.681117,23.6956982 L203.681117,13.4933233 C203.681117,13.4933233 203.389916,13.4698365 202.815565,13.3889378 L202.815565,13.3889378 Z M205.614853,19.0662026 L205.614853,23.5339007 C205.614853,23.5339007 206.586418,23.5652164 207.206395,23.53912 C209.027408,23.4660502 210.109012,22.6153086 210.03118,21.211324 C209.954689,19.8386551 208.956285,19.2123422 207.435867,19.0831652 C206.734032,19.0231436 205.614853,19.0662026 205.614853,19.0662026 L205.614853,19.0662026 Z M205.614853,13.631634 L205.614853,17.7157156 C205.614853,17.7157156 206.335475,17.7157156 206.856148,17.7039722 C208.365832,17.6661325 209.735953,17.1833497 209.789631,15.5118773 C209.828547,14.3231878 208.879795,13.7294954 207.937753,13.6681689 C207.034626,13.6081473 205.614853,13.631634 205.614853,13.631634 L205.614853,13.631634 Z" id="Fill-10" fill="#FFFFFE"></path>
            <line x1="111.539159" y1="-8.52651283e-14" x2="111.539159" y2="37.6749783" id="Stroke-11" stroke="#000000" stroke-width="0.6"></line>
            <path d="M3.1500973,23.4646256 C3.07911296,23.4579803 3.00411065,23.4473478 2.92509035,23.431399 C2.86080265,23.4247537 2.78981831,23.4167793 2.71079801,23.4114631 C2.63177772,23.4048177 2.55409675,23.4008305 2.47507645,23.4008305 C1.88979051,23.4008305 1.4786171,23.5443695 1.24289553,23.8367635 C1.00717397,24.1278286 0.889313183,24.5743941 0.889313183,25.1764601 L0.889313183,26.2596473 L1.20792265e-13,26.2596473 L1.20792265e-13,26.8989271 L0.889313183,26.8989271 L0.889313183,31.5759034 L1.66076558,31.5759034 L1.66076558,26.8989271 L2.98937805,26.8989271 L2.98937805,26.2596473 L1.66076558,26.2596473 L1.66076558,25.2934177 C1.66076558,25.0794384 1.6714802,24.8960276 1.69290943,24.7405271 C1.71433867,24.5836975 1.75719713,24.4574365 1.82148483,24.3564276 C1.88577253,24.2567478 1.98086475,24.1836493 2.10542217,24.1331448 C2.22997959,24.0839695 2.39605615,24.0600463 2.60365185,24.0600463 C2.66124291,24.0600463 2.72151263,24.0640335 2.78580033,24.0706788 C2.85008803,24.0759951 2.91035775,24.0839695 2.96794881,24.0906148 C3.03223651,24.1065635 3.09250623,24.1171961 3.1500973,24.1238414 L3.1500973,23.4646256 Z M4.47870976,24.8508394 C4.3715636,24.9545064 4.31799051,25.0860837 4.31799051,25.2495586 C4.31799051,25.4130335 4.3715636,25.5432818 4.47870976,25.6429616 C4.58585593,25.7426414 4.71443133,25.7931458 4.86443596,25.7931458 C5.02917319,25.7931458 5.16444523,25.7426414 5.2715914,25.6429616 C5.37873756,25.5432818 5.43231065,25.4130335 5.43231065,25.2495586 C5.43231065,25.0860837 5.37739823,24.9545064 5.26623409,24.8508394 C5.15506994,24.7485015 5.02113723,24.696668 4.86443596,24.696668 C4.71443133,24.696668 4.58585593,24.7485015 4.47870976,24.8508394 L4.47870976,24.8508394 Z M6.85735466,24.8508394 C6.75020849,24.9545064 6.69663541,25.0860837 6.69663541,25.2495586 C6.69663541,25.4130335 6.75020849,25.5432818 6.85735466,25.6429616 C6.96450083,25.7426414 7.09307623,25.7931458 7.24308086,25.7931458 C7.40781809,25.7931458 7.54309013,25.7426414 7.65023629,25.6429616 C7.75738246,25.5432818 7.81095554,25.4130335 7.81095554,25.2495586 C7.81095554,25.0860837 7.75604313,24.9545064 7.64487899,24.8508394 C7.53371484,24.7485015 7.39978213,24.696668 7.24308086,24.696668 C7.09307623,24.696668 6.96450083,24.7485015 6.85735466,24.8508394 L6.85735466,24.8508394 Z M4.03941048,26.2596473 L4.03941048,30.1830443 C4.03941048,30.3531645 4.05682173,30.5246138 4.09298356,30.7000502 C4.12914539,30.8741576 4.1987904,31.0336453 4.30191859,31.1771842 C4.40504677,31.3233813 4.55237275,31.441668 4.74121787,31.5347025 C4.93006299,31.6250788 5.17917783,31.6715961 5.48588373,31.6715961 C5.7068727,31.6715961 5.92920099,31.6410276 6.15018996,31.5759034 C6.37117893,31.5121084 6.57207799,31.441668 6.75020849,31.3645823 C6.95780419,31.2728768 7.15736393,31.1652227 7.35022703,31.0456069 L7.45737319,31.5759034 L8.04667711,31.5759034 L8.04667711,26.2596473 L7.27522471,26.2596473 L7.27522471,30.4913872 C7.10379084,30.5977123 6.92566034,30.6894177 6.73949388,30.7691616 C6.58279261,30.8382729 6.40734076,30.9007389 6.21447766,30.9539015 C6.02161456,31.007064 5.83276944,31.0349744 5.64660298,31.0349744 C5.46847248,31.0349744 5.32516448,31.0083931 5.21801831,30.9592177 C5.11087215,30.9087133 5.02649454,30.8382729 4.96622482,30.7452384 C4.9059551,30.6548621 4.86443596,30.5405626 4.84300673,30.404998 C4.8215775,30.2707626 4.81086288,30.1179202 4.81086288,29.9464709 L4.81086288,26.2596473 L4.03941048,26.2596473 Z M12.5361015,26.1652837 C12.2856473,26.149335 12.0472471,26.1772453 11.8182222,26.2436985 C11.5891972,26.3114808 11.3829409,26.3845793 11.1967744,26.461665 C10.9824821,26.5546995 10.7789044,26.6650118 10.5860413,26.7912729 L10.4788951,26.2596473 L9.88959117,26.2596473 L9.88959117,31.5759034 L10.6610436,31.5759034 L10.6610436,27.3547961 C10.8539067,27.2484709 11.0534664,27.1580946 11.2610621,27.0783507 C11.4391926,27.0092394 11.6400917,26.9507606 11.8610806,26.9029143 C12.0820696,26.856397 12.3070766,26.8444355 12.5361015,26.8657005 L12.5361015,26.1652837 Z M20.6042078,24.1331448 L19.6184631,24.1331448 L17.218389,27.9940759 L17.218389,24.1331448 L16.4040781,24.1331448 L16.4040781,31.5759034 L17.218389,31.5759034 L17.218389,28.9828995 L18.0755583,27.7588315 C18.2108303,27.8943961 18.3434237,28.0432512 18.4719991,28.2067261 C18.5791453,28.3476069 18.6876308,28.5097527 18.7987949,28.6944926 C18.9086197,28.8805616 19.003712,29.0772631 19.0827323,29.2899133 L19.8541847,31.5759034 L20.7542125,31.5759034 L19.8327554,29.0573271 C19.7323059,28.7808818 19.6037305,28.5257015 19.4470292,28.2957734 C19.2889886,28.0658453 19.138984,27.8691438 18.9970153,27.706998 C18.8255815,27.5142837 18.6501296,27.3415054 18.4719991,27.1846759 L20.6042078,24.1331448 Z M22.1256834,26.2596473 L22.1256834,30.1830443 C22.1256834,30.3531645 22.1430946,30.5246138 22.1792565,30.7000502 C22.214079,30.8741576 22.283724,31.0336453 22.3881915,31.1771842 C22.4913197,31.3233813 22.6373063,31.441668 22.8274908,31.5347025 C23.0163359,31.6250788 23.2641114,31.6715961 23.5721566,31.6715961 C23.7931456,31.6715961 24.0141346,31.6410276 24.2364629,31.5759034 C24.4574518,31.5121084 24.6570116,31.441668 24.8364814,31.3645823 C25.0427378,31.2728768 25.2436368,31.1652227 25.4364999,31.0456069 L25.5436461,31.5759034 L26.13295,31.5759034 L26.13295,26.2596473 L25.3614976,26.2596473 L25.3614976,30.4913872 C25.1900638,30.5977123 25.0105939,30.6894177 24.8257668,30.7691616 C24.6677262,30.8382729 24.4936137,30.9007389 24.3007506,30.9539015 C24.1078875,31.007064 23.917703,31.0349744 23.7328759,31.0349744 C23.5534061,31.0349744 23.4114374,31.0083931 23.3042912,30.9592177 C23.1971451,30.9087133 23.1127675,30.8382729 23.0524977,30.7452384 C22.9908887,30.6548621 22.9507089,30.5405626 22.9292796,30.404998 C22.9078504,30.2707626 22.8971358,30.1179202 22.8971358,29.9464709 L22.8971358,26.2596473 L22.1256834,26.2596473 Z M27.9758641,31.5759034 L28.7473165,31.5759034 L28.7473165,23.4951941 L27.9758641,23.4951941 L27.9758641,31.5759034 Z M33.1724532,30.9485852 C33.1148621,30.9632049 33.0545924,30.9751665 32.9903047,30.9818118 C32.8831585,31.0017478 32.7612798,31.0123803 32.6260077,31.0123803 C32.418412,31.0123803 32.2523355,30.9884571 32.127778,30.9392818 C32.0018813,30.8887773 31.9081284,30.8143498 31.8438407,30.71467 C31.779553,30.6149901 31.7366945,30.4874 31.7152653,30.3318995 C31.6938361,30.1737409 31.6831215,29.99033 31.6831215,29.7776798 L31.6831215,26.8989271 L33.0117339,26.8989271 L33.0117339,26.2596473 L31.6831215,26.2596473 L31.6831215,24.1331448 L30.9116691,24.1331448 L30.9116691,26.2596473 L30.0223559,26.2596473 L30.0223559,26.8989271 L30.9116691,26.8989271 L30.9116691,29.8919793 C30.9116691,30.4967034 31.0295298,30.943269 31.2652514,31.234334 C31.500973,31.525399 31.9108071,31.6715961 32.4974323,31.6715961 C32.5751133,31.6715961 32.6541336,31.670267 32.7331539,31.6662798 C32.8108349,31.6622926 32.8831585,31.6556473 32.9474462,31.6410276 C33.0251272,31.6330532 33.1001295,31.6224207 33.1724532,31.607801 L33.1724532,30.9485852 Z M34.2760587,26.2596473 L34.2760587,30.1830443 C34.2760587,30.3531645 34.2934699,30.5246138 34.3296318,30.7000502 C34.3644543,30.8741576 34.4340993,31.0336453 34.5385668,31.1771842 C34.641695,31.3233813 34.7876816,31.441668 34.9778661,31.5347025 C35.1667112,31.6250788 35.4144867,31.6715961 35.7225319,31.6715961 C35.9435209,31.6715961 36.1645099,31.6410276 36.3868382,31.5759034 C36.6078271,31.5121084 36.8073869,31.441668 36.9868567,31.3645823 C37.1931131,31.2728768 37.3940121,31.1652227 37.5868752,31.0456069 L37.6940214,31.5759034 L38.2833253,31.5759034 L38.2833253,26.2596473 L37.5118729,26.2596473 L37.5118729,30.4913872 C37.3404391,30.5977123 37.1609692,30.6894177 36.9761421,30.7691616 C36.8181015,30.8382729 36.643989,30.9007389 36.4511259,30.9539015 C36.2582628,31.007064 36.0680783,31.0349744 35.8832512,31.0349744 C35.7037814,31.0349744 35.5618127,31.0083931 35.4546665,30.9592177 C35.3475204,30.9087133 35.2631427,30.8382729 35.202873,30.7452384 C35.141264,30.6548621 35.1010842,30.5405626 35.0796549,30.404998 C35.0582257,30.2707626 35.0475111,30.1179202 35.0475111,29.9464709 L35.0475111,26.2596473 L34.2760587,26.2596473 Z M42.7727497,26.1652837 C42.5222955,26.149335 42.282556,26.1772453 42.0548704,26.2436985 C41.8258454,26.3114808 41.6182498,26.3845793 41.4334226,26.461665 C41.2191303,26.5546995 41.0155526,26.6650118 40.8226895,26.7912729 L40.7155433,26.2596473 L40.1262394,26.2596473 L40.1262394,31.5759034 L40.8976918,31.5759034 L40.8976918,27.3547961 C41.0905549,27.2484709 41.2901146,27.1580946 41.4977103,27.0783507 C41.6758408,27.0092394 41.8754006,26.9507606 42.0977288,26.9029143 C42.3187178,26.856397 42.5437248,26.8444355 42.7727497,26.8657005 L42.7727497,26.1652837 Z M46.55367,26.2596473 L46.55367,30.1830443 C46.55367,30.3531645 46.5724206,30.5246138 46.6072431,30.7000502 C46.643405,30.8741576 46.71305,31.0336453 46.8161782,31.1771842 C46.9206457,31.3233813 47.0666323,31.441668 47.2554774,31.5347025 C47.4456619,31.6250788 47.6934374,31.6715961 48.0001433,31.6715961 C48.2224716,31.6715961 48.4434606,31.6410276 48.6644495,31.5759034 C48.8867778,31.5121084 49.0863376,31.441668 49.2644681,31.3645823 C49.4720638,31.2728768 49.6716235,31.1652227 49.8644866,31.0456069 L49.9716328,31.5759034 L50.5609367,31.5759034 L50.5609367,26.2596473 L49.7894843,26.2596473 L49.7894843,30.4913872 C49.6180504,30.5977123 49.4399199,30.6894177 49.2537534,30.7691616 C49.0970522,30.8382729 48.9216003,30.9007389 48.7287372,30.9539015 C48.5358741,31.007064 48.347029,31.0349744 48.1608625,31.0349744 C47.982732,31.0349744 47.839424,31.0083931 47.7322779,30.9592177 C47.6251317,30.9087133 47.5420934,30.8382729 47.4804844,30.7452384 C47.4202147,30.6548621 47.3786955,30.5405626 47.3572663,30.404998 C47.3358371,30.2707626 47.3251224,30.1179202 47.3251224,29.9464709 L47.3251224,26.2596473 L46.55367,26.2596473 Z M56.4111174,31.5759034 L56.4111174,27.6538355 C56.4111174,27.4823862 56.3937061,27.3109369 56.3575443,27.1368296 C56.3227218,26.9627222 56.2530768,26.8032345 56.1486093,26.6596956 C56.0454811,26.5134985 55.8994944,26.3952118 55.70931,26.3021773 C55.5204649,26.211801 55.2726894,26.1652837 54.9646441,26.1652837 C54.7436552,26.1652837 54.5226662,26.1971813 54.3003379,26.2662926 C54.0793489,26.3340749 53.8797892,26.4045153 53.7003194,26.48293 C53.494063,26.5746355 53.2931639,26.6783025 53.1003008,26.7912729 L52.9931547,26.2596473 L52.4038507,26.2596473 L52.4038507,31.5759034 L53.1753031,31.5759034 L53.1753031,27.3454926 C53.346737,27.2458128 53.5262068,27.1580946 53.711034,27.0796798 C53.8690746,27.0092394 54.0431871,26.9454443 54.2360502,26.8882946 C54.4289133,26.8311448 54.6190977,26.8019054 54.8039249,26.8019054 C54.9833947,26.8019054 55.1253634,26.8284867 55.2325095,26.8776621 C55.3396557,26.9268374 55.4240333,26.9986069 55.484303,27.0903123 C55.5459121,27.1820177 55.5860919,27.2963172 55.6075211,27.4318818 C55.6289504,27.5661172 55.639665,27.7202887 55.639665,27.8904089 L55.639665,31.5759034 L56.4111174,31.5759034 Z M61.9505742,31.5759034 L61.9505742,23.4951941 L61.1791218,23.4951941 L61.1791218,26.1533222 L61.2326949,26.7819695 C61.1121554,26.668999 60.9728654,26.565332 60.8148248,26.4722975 C60.6795528,26.3952118 60.5174942,26.3247714 60.3273098,26.2596473 C60.1384646,26.1958522 59.922833,26.1652837 59.6790755,26.1652837 C59.4728191,26.1652837 59.2612054,26.2171172 59.0469131,26.3181261 C58.8326207,26.420464 58.6384183,26.585268 58.4629665,26.8125379 C58.2888539,27.0398079 58.1442066,27.3348601 58.0290245,27.6950365 C57.9151817,28.0578709 57.8575906,28.5004493 57.8575906,29.0241005 C57.8575906,29.9464709 58.0116132,30.6176483 58.3183191,31.0402906 C58.6263644,31.4602749 59.0576277,31.6715961 59.6147878,31.6715961 C59.7942576,31.6715961 59.9777454,31.6410276 60.1665905,31.5759034 C60.356775,31.5121084 60.5335661,31.441668 60.696964,31.3645823 C60.8831305,31.2728768 61.069297,31.1652227 61.2541241,31.0456069 L61.3612703,31.5759034 L61.9505742,31.5759034 Z M61.1791218,30.4820837 C61.0076879,30.5804345 60.8362541,30.6681527 60.6648202,30.7465675 C60.5228515,30.8183369 60.3688289,30.880803 60.2040917,30.9339655 C60.0406938,30.9871281 59.8933678,31.0123803 59.7647924,31.0123803 C59.558536,31.0123803 59.3830842,30.9632049 59.2397762,30.8648542 C59.0978075,30.7651744 58.9826254,30.6229645 58.8969084,30.4395537 C58.8111915,30.2548138 58.7495825,30.0355182 58.7094026,29.7803379 C58.6705622,29.5238286 58.6504723,29.2367507 58.6504723,28.9177754 C58.6504723,28.2745084 58.7602971,27.7641478 58.9772681,27.3880227 C59.1955784,27.0105685 59.4754977,26.8244995 59.8183655,26.8244995 C60.0473904,26.8244995 60.2469501,26.8537389 60.418384,26.9135468 C60.5898179,26.9733547 60.7331259,27.0437951 60.8469687,27.1222099 C60.9755441,27.2059409 61.0867082,27.3056207 61.1791218,27.4185911 L61.1791218,30.4820837 Z M66.4185693,31.5759034 L70.0829682,31.5759034 L70.0829682,30.8754867 L67.2328802,30.8754867 L67.2328802,28.0778069 L69.7615297,28.0778069 L69.7615297,27.3986552 L67.2328802,27.3986552 L67.2328802,24.8362197 L69.9758221,24.8362197 L69.9758221,24.1331448 L66.4185693,24.1331448 L66.4185693,31.5759034 Z M71.6365876,26.2596473 L71.6365876,30.1830443 C71.6365876,30.3531645 71.6539989,30.5246138 71.6901607,30.7000502 C71.7263226,30.8741576 71.7959676,31.0336453 71.8990958,31.1771842 C72.0022239,31.3233813 72.1495499,31.441668 72.338395,31.5347025 C72.5272402,31.6250788 72.776355,31.6715961 73.0830609,31.6715961 C73.3040499,31.6715961 73.5263782,31.6410276 73.7473671,31.5759034 C73.9683561,31.5121084 74.1692552,31.441668 74.3473857,31.3645823 C74.5549814,31.2728768 74.7545411,31.1652227 74.9474042,31.0456069 L75.0545504,31.5759034 L75.6438543,31.5759034 L75.6438543,26.2596473 L74.8724019,26.2596473 L74.8724019,30.4913872 C74.700968,30.5977123 74.5228375,30.6894177 74.336671,30.7691616 C74.1799698,30.8382729 74.0045179,30.9007389 73.8116548,30.9539015 C73.6187917,31.007064 73.4299466,31.0349744 73.2437801,31.0349744 C73.0656496,31.0349744 72.9223416,31.0083931 72.8151955,30.9592177 C72.7080493,30.9087133 72.6236717,30.8382729 72.563402,30.7452384 C72.5031323,30.6548621 72.4616131,30.5405626 72.4401839,30.404998 C72.4187547,30.2707626 72.40804,30.1179202 72.40804,29.9464709 L72.40804,26.2596473 L71.6365876,26.2596473 Z M80.1332787,26.1652837 C79.8828245,26.149335 79.6444243,26.1772453 79.4153993,26.2436985 C79.1863744,26.3114808 78.980118,26.3845793 78.7939516,26.461665 C78.5796592,26.5546995 78.3760815,26.6650118 78.1832184,26.7912729 L78.0760723,26.2596473 L77.4867683,26.2596473 L77.4867683,31.5759034 L78.2582207,31.5759034 L78.2582207,27.3547961 C78.4510838,27.2484709 78.6506436,27.1580946 78.8582393,27.0783507 C79.0363698,27.0092394 79.2372688,26.9507606 79.4582578,26.9029143 C79.6792468,26.856397 79.9042537,26.8444355 80.1332787,26.8657005 L80.1332787,26.1652837 Z M82.206557,27.3547961 C82.481119,26.9879744 82.8333621,26.8019054 83.2619467,26.8019054 C83.4481132,26.8019054 83.6302617,26.8364611 83.8083922,26.9029143 C83.9865227,26.9706966 84.1445633,27.0876542 84.2798353,27.2537872 C84.4151073,27.4199202 84.5249322,27.6378867 84.6066311,27.9076867 C84.6883301,28.1774867 84.7298492,28.5137399 84.7298492,28.9177754 C84.7298492,29.2513704 84.692348,29.5504099 84.6173457,29.8122355 C84.5423434,30.072732 84.4392152,30.2946857 84.3066218,30.4767675 C84.1740285,30.6575202 84.0186665,30.7944138 83.840536,30.8901064 C83.6624055,30.9871281 83.4695424,31.0349744 83.2619467,31.0349744 C83.062387,31.0349744 82.8722025,31.0004187 82.694072,30.9339655 C82.5159415,30.8661833 82.3605796,30.7478966 82.2279862,30.5817635 C82.0953928,30.4156305 81.9909253,30.1989931 81.911905,29.9291931 C81.8328847,29.6593931 81.7940442,29.3231399 81.7940442,28.9177754 C81.7940442,28.2439399 81.9319949,27.7242759 82.206557,27.3547961 L82.206557,27.3547961 Z M81.6065384,31.0230128 C82.0096759,31.4549586 82.5614787,31.6715961 83.2619467,31.6715961 C83.5900819,31.6715961 83.8941091,31.60913 84.1726891,31.4868562 C84.4512692,31.3632532 84.6910087,31.1771842 84.8905685,30.9339655 C85.0901282,30.6880887 85.2454901,30.3890493 85.3566543,30.0355182 C85.4678184,29.6793291 85.5227308,29.2739645 85.5227308,28.8114502 C85.5227308,27.9116739 85.3231711,27.2444837 84.9227123,26.8125379 C84.5222535,26.3819212 83.9691114,26.1652837 83.2619467,26.1652837 C82.919079,26.1652837 82.6096944,26.2290788 82.3351324,26.3553399 C82.0605703,26.48293 81.8221701,26.6703281 81.6226104,26.9135468 C81.4230506,27.1594236 81.269028,27.457134 81.1618819,27.8119941 C81.0547357,28.1681833 81.0011626,28.5708897 81.0011626,29.0241005 C81.0011626,29.9252059 81.203401,30.5923961 81.6065384,31.0230128 L81.6065384,31.0230128 Z M86.9906333,26.2596473 L86.9906333,33.703735 L87.7620857,33.703735 L87.7620857,31.6822286 L87.7085126,31.0549103 C87.8303914,31.1758552 87.9696814,31.2781931 88.1263827,31.3645823 C88.2616547,31.441668 88.4250526,31.5121084 88.6138977,31.5759034 C88.8027429,31.6410276 89.0197138,31.6715961 89.262132,31.6715961 C89.4616918,31.6715961 89.6706268,31.6197626 89.8889371,31.5174246 C90.1072474,31.4164158 90.3027892,31.2516118 90.478241,31.0230128 C90.6536929,30.7957429 90.7983402,30.5020197 90.912183,30.1405143 C91.0260258,29.7803379 91.0836169,29.3364305 91.0836169,28.8114502 C91.0836169,27.8917379 90.9295943,27.2192315 90.6228884,26.7965892 C90.3161825,26.3752759 89.8835798,26.1652837 89.3264197,26.1652837 C89.1482892,26.1652837 88.9634621,26.1971813 88.774617,26.2662926 C88.5857719,26.3340749 88.4089807,26.4045153 88.2442435,26.48293 C88.058077,26.5746355 87.8732499,26.6783025 87.6870834,26.7912729 L87.5799372,26.2596473 L86.9906333,26.2596473 Z M87.7620857,27.3547961 C87.9335196,27.2551163 88.1049534,27.1687271 88.2763873,27.0889833 C88.4196953,27.0251882 88.5723786,26.9653803 88.7371158,26.9082305 C88.9018531,26.8510808 89.0478397,26.8244995 89.1764151,26.8244995 C89.3840108,26.8244995 89.5581233,26.8723458 89.7014313,26.9720256 C89.8447393,27.0717054 89.9585821,27.2139153 90.0442991,27.3986552 C90.130016,27.582066 90.1929644,27.8013616 90.2318049,28.0578709 C90.2706453,28.3117222 90.2907352,28.6001291 90.2907352,28.9177754 C90.2907352,29.5623714 90.1822498,30.072732 89.9639394,30.4488571 C89.7456291,30.8263113 89.4657098,31.0123803 89.122842,31.0123803 C88.8938171,31.0123803 88.6942574,30.9831409 88.5228235,30.923333 C88.3513896,30.8635251 88.2080816,30.7930847 88.0942388,30.715999 C87.9656634,30.6296099 87.8544993,30.5312591 87.7620857,30.4169596 L87.7620857,27.3547961 Z M92.6372363,27.1541074 C92.8515286,27.0889833 93.065821,27.0318335 93.2801133,26.9826581 C93.4662798,26.9414571 93.6658395,26.9002562 93.8801318,26.8603842 C94.0944242,26.8231704 94.2939839,26.8019054 94.4801504,26.8019054 C94.8725732,26.8019054 95.1390993,26.8710167 95.2783893,27.0105685 C95.4176793,27.1501202 95.4873243,27.4013133 95.4873243,27.7668059 L95.4873243,28.3874788 L94.2229996,28.3874788 C93.9511162,28.3874788 93.6993227,28.4260217 93.4676191,28.5044365 C93.2359155,28.5815222 93.0376951,28.6931635 92.8729579,28.8380315 C92.7082206,28.9842286 92.5796452,29.1636522 92.4872317,29.3763025 C92.3948181,29.5889527 92.3479416,29.8295133 92.3479416,30.0993133 C92.3479416,30.3119635 92.3787462,30.5126522 92.4390159,30.7053665 C92.4992856,30.8954227 92.5930385,31.0615557 92.7175959,31.2050946 C92.8421533,31.3459754 93.0015333,31.4589458 93.1943964,31.545335 C93.3872595,31.629066 93.618963,31.6715961 93.8908464,31.6715961 C94.0770129,31.6715961 94.265858,31.6410276 94.4587211,31.5759034 C94.6515842,31.5121084 94.8297147,31.441668 94.994452,31.3645823 C95.1806184,31.2728768 95.3694635,31.1652227 95.5623266,31.0456069 L95.6694728,31.5759034 L96.2587767,31.5759034 L96.2587767,27.5780788 C96.2587767,27.3016335 96.2266329,27.0730345 96.1623452,26.8936108 C96.0980575,26.7128581 96.0002866,26.5679901 95.8676932,26.461665 C95.7350998,26.3553399 95.5676839,26.2809123 95.3641062,26.2343951 C95.1605285,26.1865488 94.9194496,26.1652837 94.6408696,26.1652837 C94.3770222,26.1652837 94.1252287,26.1812325 93.8854891,26.2184463 C93.6457496,26.2516729 93.4341359,26.2875576 93.2479694,26.3234424 C93.0269805,26.3712887 92.8234028,26.4231222 92.6372363,26.4802719 L92.6372363,27.1541074 Z M93.4569045,29.2526995 C93.6819114,29.0785921 93.9658488,28.993532 94.3087165,28.993532 L95.4873243,28.993532 L95.4873243,30.4701222 C95.3158905,30.5764473 95.1444566,30.6681527 94.9730227,30.7465675 C94.8297147,30.8183369 94.6730135,30.880803 94.5015796,30.9339655 C94.3301457,30.9871281 94.1734445,31.0123803 94.0301365,31.0123803 C93.7368238,31.0123803 93.5118169,30.9246621 93.3551156,30.7465675 C93.1984143,30.569802 93.119394,30.3332286 93.119394,30.0355182 C93.119394,29.6873034 93.2318975,29.428136 93.4569045,29.2526995 L93.4569045,29.2526995 Z" id="Fill-13" fill="#000000"></path>
            <path d="M22.4936861,12.3299295 C22.3163951,12.3097728 22.137771,12.2828972 21.96048,12.2560216 C21.8111823,12.2331773 21.6472214,12.2130206 21.4699304,12.1968952 C21.2926393,12.1780823 21.1286785,12.1686758 20.9793807,12.1686758 C20.6234657,12.1686758 20.3115401,12.2183957 20.040938,12.320523 C19.7703359,12.4213066 19.5437233,12.5570284 19.3584341,12.7330637 C19.173145,12.9104428 19.0331784,13.1133537 18.9372013,13.3458277 C18.8412242,13.5783018 18.7932356,13.8295888 18.7932356,14.0943136 C18.7932356,14.5081981 18.8718835,14.8468308 19.0278463,15.1102119 C19.1838091,15.3709053 19.3784294,15.5912854 19.609041,15.771352 C19.8396527,15.9500749 20.0902595,16.1032659 20.3608616,16.2282375 C20.6314637,16.3518653 20.8820706,16.4848996 21.1126823,16.6259966 C21.3432939,16.764406 21.5379142,16.9270035 21.6938769,17.1151328 C21.8498397,17.3019183 21.9284876,17.5437988 21.9284876,17.8461495 C21.9284876,18.2546588 21.8018512,18.57851 21.5499113,18.817703 C21.2979714,19.0582397 20.9260601,19.1778362 20.4355105,19.1778362 C20.2368912,19.1778362 20.0369389,19.1630546 19.8383196,19.136179 C19.6397004,19.1066158 19.4584103,19.0757089 19.2944494,19.038083 C19.1091603,18.995082 18.9278702,18.9453622 18.7505792,18.8875796 L18.7505792,19.6414406 C18.9212051,19.6992232 19.0984961,19.7449117 19.2837853,19.77985 C19.4477462,19.8174759 19.6250372,19.8456953 19.8169914,19.8725709 C20.0089456,19.8967589 20.2075649,19.9101967 20.4141823,19.9101967 C20.8194189,19.9101967 21.1700019,19.8577893 21.4645983,19.7543182 C21.7591947,19.6508471 22.0031365,19.5043749 22.1950907,19.3175894 C22.3870449,19.1321477 22.5270115,18.9104239 22.6163235,18.6510742 C22.7056356,18.3930683 22.7496251,18.1095305 22.7496251,17.8031485 C22.7496251,17.3946392 22.6709772,17.0627253 22.5150144,16.807407 C22.3590516,16.5547762 22.1630983,16.3424588 21.9284876,16.1744862 C21.6938769,16.0065136 21.439271,15.8600415 21.1660029,15.7377575 C20.8927347,15.6168172 20.6381288,15.4837829 20.4035181,15.3413422 C20.1689074,15.1962138 19.9729542,15.0268975 19.8169914,14.8307055 C19.6610286,14.6318259 19.5823807,14.3778514 19.5823807,14.0607191 C19.5823807,13.718055 19.7063511,13.4345173 19.955625,13.2127935 C20.2048988,12.9910696 20.5381527,12.8795358 20.9580525,12.8795358 C21.1073502,12.8795358 21.2713111,12.8889423 21.4486021,12.9117866 C21.6258932,12.9332871 21.7938531,12.9534438 21.9498159,12.976288 C22.135105,13.0031637 22.3163951,13.0340706 22.4936861,13.0609462 L22.4936861,12.3299295 Z M27.7617626,18.8674229 C27.5844716,18.9372995 27.4031815,18.9991134 27.2178924,19.0488333 C27.0539315,19.093178 26.8779735,19.1321477 26.6900183,19.167086 C26.5020631,19.2047118 26.315441,19.2208372 26.1301519,19.2208372 C25.8742129,19.2208372 25.6609305,19.1778362 25.4903045,19.0945218 C25.3196786,19.0071761 25.181045,18.8902671 25.0744038,18.7411075 C24.9677625,18.590604 24.8891146,18.4118812 24.8397931,18.2009076 C24.7904715,17.9912778 24.7544801,17.7614913 24.7331518,17.5128919 L25.7782358,17.5128919 C26.0275097,17.5128919 26.2754505,17.4900476 26.5247244,17.4483904 C26.7739983,17.4053894 26.9952788,17.3193874 27.1912321,17.193072 C27.3871853,17.0694442 27.5471471,16.8960965 27.6711176,16.6770602 C27.795088,16.458024 27.8577397,16.1717987 27.8577397,15.8183843 C27.8577397,15.323873 27.708442,14.9489582 27.4098466,14.6963274 C27.1112511,14.4463842 26.7060145,14.3200688 26.1941366,14.3200688 C25.8675479,14.3200688 25.5662864,14.3791951 25.2930183,14.4974479 C25.0197501,14.6143568 24.7824734,14.7957672 24.5838541,15.0403353 C24.3852348,15.2835596 24.2306051,15.5859103 24.1199648,15.9487311 C24.0093245,16.3088643 23.9533379,16.7321552 23.9533379,17.2105412 C23.9533379,18.0490604 24.1199648,18.7048254 24.4505526,19.1778362 C24.7811404,19.6521908 25.2943513,19.8873525 25.9915183,19.8873525 C26.2327941,19.8873525 26.4607397,19.8725709 26.6740221,19.8389764 C26.8873046,19.8080694 27.0752597,19.7690998 27.2392206,19.7260988 C27.4245097,19.6763789 27.5978017,19.6185963 27.7617626,19.5540948 L27.7617626,18.8674229 Z M24.7224877,16.8665333 C24.7291528,16.6085274 24.7664772,16.3626155 24.834461,16.1314853 C24.9024448,15.9016987 24.9957559,15.6987878 25.1170602,15.5254401 C25.2383646,15.3534362 25.3889954,15.2177143 25.5702855,15.1169308 C25.7515755,15.0148034 25.9595259,14.9637398 26.1941366,14.9637398 C26.486067,14.9637398 26.7073475,15.0443666 26.8606443,15.201589 C27.013941,15.3601551 27.0899229,15.5832227 27.0899229,15.8721356 C27.0899229,16.17583 26.9832817,16.4163668 26.7699992,16.5964334 C26.5567168,16.7778438 26.226129,16.8665333 25.7782358,16.8665333 L24.7224877,16.8665333 Z M33.4137475,19.8026943 L33.4137475,15.8358535 C33.4137475,15.6638495 33.3964183,15.4905018 33.3604269,15.3131228 C33.3244355,15.1370875 33.2551187,14.9758338 33.1524765,14.8307055 C33.0498343,14.6828896 32.9032026,14.5619493 32.7152475,14.4692285 C32.5272923,14.3778514 32.2793515,14.330819 31.974091,14.330819 C31.7541434,14.330819 31.5328629,14.3630698 31.3129154,14.4329464 C31.0929679,14.5014792 30.8930156,14.5726996 30.7157245,14.6533264 C30.5091072,14.7447035 30.3104879,14.8495184 30.1185337,14.9637398 L30.0118924,14.4275713 L29.4253657,14.4275713 L29.4253657,19.8026943 L30.1931825,19.8026943 L30.1931825,15.5240964 C30.3638085,15.4233128 30.5410995,15.3346233 30.7263886,15.2539964 C30.8823514,15.182776 31.0569764,15.1182746 31.2489306,15.0618358 C31.4408849,15.0040532 31.62884,14.97449 31.8141291,14.97449 C31.9914202,14.97449 32.1340528,15.0013656 32.240694,15.0510855 C32.3473353,15.1021492 32.4313152,15.1733696 32.4913009,15.2674342 C32.5512866,15.3588113 32.5926101,15.4743765 32.6139383,15.6114421 C32.6352666,15.747164 32.6459307,15.9030425 32.6459307,16.0737027 L32.6459307,19.8026943 L33.4137475,19.8026943 Z M35.3119613,15.3305919 C35.5252437,15.2660904 35.7385262,15.2083079 35.9504756,15.158588 C36.1357648,15.115587 36.3357171,15.072586 36.5489995,15.0336164 C36.7622819,14.9959905 36.9609012,14.97449 37.1461904,14.97449 C37.5367638,14.97449 37.8020339,15.0457104 37.9406675,15.1854636 C38.0793011,15.3279044 38.1486179,15.5805351 38.1486179,15.9500749 L38.1486179,16.5762767 L36.8902514,16.5762767 C36.6196493,16.5762767 36.3690424,16.6165901 36.1384308,16.6945294 C35.9064861,16.7751562 35.7091999,16.8880338 35.546572,17.0331621 C35.3826111,17.180978 35.2546416,17.3610446 35.1626636,17.5773933 C35.0693525,17.7923983 35.02403,18.0342788 35.02403,18.3084101 C35.02403,18.523415 35.0533563,18.7263259 35.114675,18.9211741 C35.1746607,19.1133347 35.2666388,19.2813073 35.3919422,19.4264357 C35.5159126,19.5688764 35.6745415,19.6830978 35.8664957,19.7690998 C36.0584499,19.8564455 36.2890615,19.8981027 36.5596636,19.8981027 C36.7436197,19.8981027 36.9329079,19.8671958 37.1248621,19.8026943 C37.3168163,19.736849 37.4941074,19.6656286 37.6580682,19.5876894 C37.8420243,19.4936247 38.0313125,19.3861222 38.2232667,19.2638382 L38.3299079,19.8026943 L38.9164347,19.8026943 L38.9164347,15.759258 C38.9164347,15.4797516 38.8844423,15.2486213 38.8204576,15.0658671 C38.7564728,14.8844567 38.6578297,14.7379846 38.5271942,14.6304821 C38.3952257,14.5229797 38.2285988,14.4463842 38.0259805,14.3993519 C37.8233621,14.3523195 37.5834194,14.330819 37.3061522,14.330819 C37.0422152,14.330819 36.7916083,14.3469444 36.5543316,14.3845703 C36.3157218,14.4181648 36.1037724,14.4531031 35.9198163,14.4907289 C35.6985357,14.5404488 35.4959174,14.5928563 35.3119613,14.6506389 L35.3119613,15.3305919 Z M36.1277667,17.4537655 C36.3517132,17.2777302 36.6343125,17.1903845 36.9755644,17.1903845 L38.1486179,17.1903845 L38.1486179,18.6846687 C37.9779919,18.7921711 37.8073659,18.8835482 37.63674,18.9641751 C37.4941074,19.0353955 37.3381446,19.0972094 37.1675186,19.1509606 C36.9968926,19.2060556 36.8395968,19.2315875 36.6982972,19.2315875 C36.4063669,19.2315875 36.1824203,19.1428979 36.0264575,18.9641751 C35.8691617,18.7841085 35.7918468,18.5435717 35.7918468,18.2439086 C35.7918468,17.8931818 35.9038201,17.6298008 36.1277667,17.4537655 L36.1277667,17.4537655 Z M43.299389,19.167086 C43.2420693,19.1832113 43.1820837,19.1939616 43.1180989,19.2006805 C43.0114577,19.2208372 42.8901533,19.2315875 42.7555188,19.2315875 C42.5489014,19.2315875 42.3836075,19.2060556 42.2596371,19.1563357 C42.1343336,19.1066158 42.0410226,19.0313641 41.9770378,18.9292368 C41.9130531,18.829797 41.8703966,18.7007941 41.8490684,18.5422279 C41.8277401,18.3836618 41.817076,18.1982201 41.817076,17.9818714 L41.817076,15.0712422 L43.1394272,15.0712422 L43.1394272,14.4275713 L41.817076,14.4275713 L41.817076,12.2761783 L41.0492592,12.2761783 L41.0492592,14.4275713 L40.164137,14.4275713 L40.164137,15.0712422 L41.0492592,15.0712422 L41.0492592,18.0987803 C41.0492592,18.7088567 41.1665645,19.1617109 41.4011752,19.4559988 C41.6357859,19.7529744 42.0436886,19.8981027 42.6275493,19.8981027 C42.7048642,19.8981027 42.7835121,19.8967589 42.86216,19.8927276 C42.9394749,19.8886962 43.0114577,19.8806336 43.0754424,19.8671958 C43.1527573,19.8604768 43.2274062,19.8483828 43.299389,19.8336012 L43.299389,19.167086 Z M47.1917937,14.4705722 C47.0558261,14.4490717 46.9171925,14.4275713 46.7758929,14.404727 C46.6545885,14.3912892 46.5119559,14.3751638 46.349328,14.3563509 C46.1853671,14.3388817 46.0187402,14.330819 45.8481143,14.330819 C45.5348557,14.330819 45.2669196,14.3684449 45.042973,14.4436966 C44.8190265,14.5176046 44.6350703,14.6224195 44.4937707,14.7554538 C44.3511381,14.8898318 44.2458299,15.0443666 44.1791791,15.2204019 C44.1111953,15.3964372 44.0778699,15.5832227 44.0778699,15.7847898 C44.0778699,16.108641 44.1418547,16.3639593 44.2698241,16.55612 C44.3977936,16.7442493 44.5577555,16.8987841 44.7497097,17.0130054 C44.9416639,17.1285706 45.1509473,17.2186039 45.3788929,17.2884805 C45.6055055,17.3570133 45.8161219,17.432265 46.0080761,17.5196108 C46.2000303,17.604269 46.3599921,17.7131152 46.4879616,17.8434619 C46.6159311,17.9724649 46.6799158,18.1538753 46.6799158,18.3917245 C46.6799158,18.4777265 46.6665857,18.5704473 46.6425914,18.6658558 C46.6172641,18.762608 46.5679425,18.8539851 46.4932937,18.9359557 C46.4186448,19.0192701 46.3173357,19.0891467 46.1893662,19.1469293 C46.0613967,19.2047118 45.8907708,19.2315875 45.6774883,19.2315875 C45.4988643,19.2315875 45.3202402,19.2194934 45.1389501,19.1953054 C44.95766,19.1684298 44.7923661,19.1402104 44.6430684,19.1025845 C44.4644444,19.0663024 44.2938184,19.0246452 44.1311906,18.9749253 L44.1311906,19.6978794 C44.2804883,19.7408804 44.4404501,19.7744749 44.6110761,19.8040381 C44.7523757,19.8309137 44.9163366,19.8551017 45.1016257,19.8725709 C45.2855818,19.8886962 45.477536,19.8981027 45.6774883,19.8981027 C46.0187402,19.8981027 46.3026725,19.8551017 46.5306181,19.7650684 C46.7572307,19.6750351 46.9385208,19.5567824 47.0744883,19.4116541 C47.2091229,19.2638382 47.3051,19.0972094 47.3624197,18.9131114 C47.4184063,18.7249821 47.4477326,18.5395404 47.4477326,18.3540986 C47.4477326,18.0033718 47.3837479,17.7252092 47.2557784,17.518267 C47.127809,17.309981 46.9651811,17.1473835 46.7705609,17.0291308 C46.5746076,16.9108781 46.3626582,16.8154697 46.1360456,16.7442493 C45.9081,16.6743727 45.6961505,16.5977772 45.5015303,16.5198379 C45.305577,16.4418986 45.1442822,16.3397713 45.0163127,16.2147997 C44.8883432,16.0884843 44.8243585,15.9111052 44.8243585,15.6826625 C44.8243585,15.5052834 44.8950083,15.3426859 45.037641,15.1948701 C45.1789406,15.0497417 45.4495427,14.97449 45.8481143,14.97449 C46.0040771,14.97449 46.1600398,14.986584 46.3173357,15.0067408 L46.7545647,15.0510855 C46.9038624,15.0779611 47.0491611,15.1048368 47.1917937,15.1249935 L47.1917937,14.4705722 Z M50.177748,18.2331584 C50.0991001,17.9885903 50.0191192,17.7426784 49.9378052,17.4900476 C49.8551583,17.2401044 49.8005046,17.0425686 49.7725113,16.9001278 L49.2819617,14.4275713 L48.4288319,14.4275713 L48.9833663,16.9001278 C49.0260228,17.0990074 49.1033376,17.3623884 49.217977,17.6902709 C49.3312833,18.0168097 49.4485886,18.3352857 49.569893,18.6510742 C49.7111926,19.0179263 49.8684884,19.39956 50.0391144,19.8026943 L50.8815801,19.8026943 C51.052206,19.4089665 51.2081688,19.0286766 51.3508014,18.6618244 C51.4707728,18.3473797 51.5907442,18.0275599 51.7080495,17.6996774 C51.8253549,17.3731387 51.9080018,17.1070701 51.9586564,16.9001278 L52.5238549,14.4275713 L51.7027175,14.4275713 L51.2121679,16.9001278 C51.1761764,17.0573502 51.1215228,17.2589173 51.046874,17.5075167 C50.9722251,17.7534286 50.8922442,17.9993405 50.8069312,18.2439086 C50.7069551,18.5301339 50.6003138,18.8271094 50.4870075,19.136179 C50.3723682,18.8190468 50.269726,18.5193837 50.177748,18.2331584 L50.177748,18.2331584 Z M57.2907176,18.8674229 C57.1120936,18.9372995 56.9308035,18.9991134 56.7468474,19.0488333 C56.5828865,19.093178 56.4069285,19.1321477 56.2189733,19.167086 C56.0296852,19.2047118 55.843063,19.2208372 55.6591069,19.2208372 C55.403168,19.2208372 55.1898855,19.1778362 55.0192596,19.0945218 C54.8486336,19.0071761 54.71,18.8902671 54.6033588,18.7411075 C54.4967176,18.590604 54.4180697,18.4118812 54.3687481,18.2009076 C54.3180935,17.9912778 54.2834351,17.7614913 54.2621069,17.5128919 L55.3071909,17.5128919 C55.5551317,17.5128919 55.8044056,17.4900476 56.0536794,17.4483904 C56.3016203,17.4053894 56.5242338,17.3193874 56.7201871,17.193072 C56.9148073,17.0694442 57.0747692,16.8960965 57.2000726,16.6770602 C57.324043,16.458024 57.3866947,16.1717987 57.3866947,15.8183843 C57.3866947,15.323873 57.237397,14.9489582 56.9388016,14.6963274 C56.6402062,14.4463842 56.2349695,14.3200688 55.7230916,14.3200688 C55.3951699,14.3200688 55.0952414,14.3791951 54.8219733,14.4974479 C54.5473721,14.6143568 54.3114284,14.7957672 54.1128092,15.0403353 C53.9128569,15.2835596 53.7582271,15.5859103 53.6489198,15.9487311 C53.5382796,16.3088643 53.4836259,16.7321552 53.4836259,17.2105412 C53.4836259,18.0490604 53.6489198,18.7048254 53.9795076,19.1778362 C54.3100954,19.6521908 54.8233063,19.8873525 55.5204733,19.8873525 C55.7617491,19.8873525 55.9896947,19.8725709 56.2029772,19.8389764 C56.4162596,19.8080694 56.6042148,19.7690998 56.7681756,19.7260988 C56.9521318,19.6763789 57.1267568,19.6185963 57.2907176,19.5540948 L57.2907176,18.8674229 Z M54.2514427,16.8665333 C54.2581078,16.6085274 54.2954323,16.3626155 54.363416,16.1314853 C54.4300668,15.9016987 54.5247109,15.6987878 54.6460153,15.5254401 C54.7659867,15.3534362 54.9179504,15.2177143 55.0992405,15.1169308 C55.2805306,15.0148034 55.488481,14.9637398 55.7230916,14.9637398 C56.013689,14.9637398 56.2363025,15.0443666 56.3895993,15.201589 C56.541563,15.3601551 56.6188779,15.5832227 56.6188779,15.8721356 C56.6188779,16.17583 56.5122367,16.4163668 56.2989543,16.5964334 C56.0856718,16.7778438 55.755084,16.8665333 55.3071909,16.8665333 L54.2514427,16.8665333 Z M61.588359,14.330819 C61.3390851,14.3160375 61.1004754,14.3415693 60.8738628,14.4101021 C60.6459172,14.4799787 60.4392998,14.5525429 60.2553437,14.6304821 C60.0420612,14.7245468 59.8394429,14.8360806 59.6474887,14.9637398 L59.5408475,14.4275713 L58.9543207,14.4275713 L58.9543207,19.8026943 L59.7221376,19.8026943 L59.7221376,15.5335028 C59.9140918,15.4260004 60.112711,15.3346233 60.3193284,15.2539964 C60.4966195,15.182776 60.6952387,15.1236497 60.9165193,15.0766174 C61.1364668,15.029585 61.3604134,15.017491 61.588359,15.0403353 L61.588359,14.330819 Z M67.7295605,19.8026943 C67.85753,19.39956 67.9748353,19.0179263 68.0814765,18.6510742 C68.1747876,18.3352857 68.2601006,18.0181534 68.3374155,17.6943023 C68.4160634,17.3717949 68.469384,17.1070701 68.4973773,16.9001278 L68.7959727,14.4275713 L67.9854994,14.4275713 L67.7402246,16.9001278 C67.7268945,17.0492875 67.6949021,17.2495108 67.6442475,17.5021416 C67.594926,17.7520848 67.5416053,17.9993405 67.4842857,18.2439086 C67.4203009,18.5301339 67.3496511,18.8271094 67.2710032,19.136179 L66.0233009,14.4275713 L65.2554841,14.4275713 L64.0077818,19.136179 C63.9304669,18.8190468 63.8584841,18.5193837 63.7944993,18.2331584 C63.7385127,17.9885903 63.6851921,17.7426784 63.6345375,17.4900476 C63.5852159,17.2401044 63.5532235,17.0425686 63.5385604,16.9001278 L63.2932856,14.4275713 L62.4401558,14.4275713 L62.7494153,16.9001278 C62.7707436,17.0990074 62.8227312,17.3623884 62.9040451,17.6902709 C62.986692,18.0168097 63.073338,18.3352857 63.1653161,18.6510742 C63.2719573,19.0179263 63.3865966,19.39956 63.506568,19.8026943 L64.4556749,19.8026943 L65.6180643,15.3843432 L66.8017818,19.8026943 L67.7295605,19.8026943 Z M70.3316064,15.3305919 C70.5448888,15.2660904 70.7581713,15.2083079 70.9714537,15.158588 C71.1567428,15.115587 71.3553621,15.072586 71.5686446,15.0336164 C71.781927,14.9959905 71.9818793,14.97449 72.1658354,14.97449 C72.5577419,14.97449 72.821679,15.0457104 72.9603126,15.1854636 C73.0989461,15.3279044 73.1682629,15.5805351 73.1682629,15.9500749 L73.1682629,16.5762767 L71.9098965,16.5762767 C71.6406274,16.5762767 71.3900205,16.6165901 71.1580759,16.6945294 C70.9274642,16.7751562 70.7301779,16.8880338 70.5662171,17.0331621 C70.4035892,17.180978 70.2756197,17.3610446 70.1823087,17.5773933 C70.0903306,17.7923983 70.0436751,18.0342788 70.0436751,18.3084101 C70.0436751,18.523415 70.0743344,18.7263259 70.1343201,18.9211741 C70.1956388,19.1133347 70.2876169,19.2813073 70.4115873,19.4264357 C70.5368907,19.5688764 70.6941865,19.6830978 70.8861407,19.7690998 C71.0780949,19.8564455 71.3100396,19.8981027 71.5793087,19.8981027 C71.7645978,19.8981027 71.952553,19.8671958 72.1445072,19.8026943 C72.3364614,19.736849 72.5150854,19.6656286 72.6777133,19.5876894 C72.8630024,19.4936247 73.0509576,19.3861222 73.2429118,19.2638382 L73.349553,19.8026943 L73.9360798,19.8026943 L73.9360798,15.759258 C73.9360798,15.4797516 73.9040874,15.2486213 73.8401027,15.0658671 C73.7761179,14.8844567 73.6788078,14.7379846 73.5468393,14.6304821 C73.4162038,14.5229797 73.2482439,14.4463842 73.0456255,14.3993519 C72.8430072,14.3523195 72.6030645,14.330819 72.3257973,14.330819 C72.0631933,14.330819 71.8125864,14.3469444 71.5739766,14.3845703 C71.3366999,14.4181648 71.1247505,14.4531031 70.9394613,14.4907289 C70.7195138,14.5404488 70.5168955,14.5928563 70.3316064,14.6506389 L70.3316064,15.3305919 Z M71.1474117,17.4537655 C71.3713583,17.2777302 71.6539576,17.1903845 71.9952095,17.1903845 L73.1682629,17.1903845 L73.1682629,18.6846687 C72.997637,18.7921711 72.827011,18.8835482 72.6563851,18.9641751 C72.5150854,19.0353955 72.3577896,19.0972094 72.1871637,19.1509606 C72.0165377,19.2060556 71.8605749,19.2315875 71.7179423,19.2315875 C71.427345,19.2315875 71.2033984,19.1428979 71.0461026,18.9641751 C70.8901398,18.7841085 70.8114919,18.5435717 70.8114919,18.2439086 C70.8114919,17.8931818 70.9234652,17.6298008 71.1474117,17.4537655 L71.1474117,17.4537655 Z M75.7489806,19.8026943 L76.5167974,19.8026943 L76.5167974,11.6325073 L75.7489806,11.6325073 L75.7489806,19.8026943 Z M80.92108,19.167086 C80.8650933,19.1832113 80.8037746,19.1939616 80.7397899,19.2006805 C80.6331486,19.2208372 80.5131773,19.2315875 80.3772097,19.2315875 C80.1719254,19.2315875 80.0066315,19.2060556 79.881328,19.1563357 C79.7573576,19.1066158 79.6627135,19.0313641 79.5987288,18.9292368 C79.534744,18.829797 79.4920875,18.7007941 79.4707593,18.5422279 C79.4494311,18.3836618 79.4387669,18.1982201 79.4387669,17.9818714 L79.4387669,15.0712422 L80.7611181,15.0712422 L80.7611181,14.4275713 L79.4387669,14.4275713 L79.4387669,12.2761783 L78.6709501,12.2761783 L78.6709501,14.4275713 L77.785828,14.4275713 L77.785828,15.0712422 L78.6709501,15.0712422 L78.6709501,18.0987803 C78.6709501,18.7088567 78.7882555,19.1617109 79.0228662,19.4559988 C79.2574769,19.7529744 79.6667126,19.8981027 80.2492402,19.8981027 C80.3278881,19.8981027 80.406536,19.8967589 80.4838509,19.8927276 C80.5624988,19.8886962 80.6331486,19.8806336 80.6971334,19.8671958 C80.7757813,19.8604768 80.8504301,19.8483828 80.92108,19.8336012 L80.92108,19.167086 Z M82.0194846,14.4275713 L82.0194846,18.3930683 C82.0194846,18.566416 82.0368138,18.7397637 82.0728052,18.915799 C82.1087966,19.0918343 82.1781134,19.2530879 82.2807556,19.3982163 C82.3833977,19.5446884 82.5300294,19.6656286 82.7179846,19.7596933 C82.9059397,19.8510704 83.1538806,19.8981027 83.4591411,19.8981027 C83.6790886,19.8981027 83.9003692,19.8671958 84.1203167,19.8026943 C84.3402642,19.736849 84.5402165,19.6656286 84.7175075,19.5876894 C84.9241249,19.4936247 85.1227442,19.3861222 85.3146984,19.2638382 L85.4213396,19.8026943 L86.0078664,19.8026943 L86.0078664,14.4275713 L85.2400495,14.4275713 L85.2400495,18.7034816 C85.0694236,18.8123279 84.8921325,18.9063925 84.7068434,18.9843318 C84.5508806,19.0555522 84.3762556,19.1187099 84.1843014,19.1724611 C83.9923472,19.2262123 83.8043921,19.2544317 83.6191029,19.2544317 C83.4418119,19.2544317 83.2991793,19.2275561 83.192538,19.1778362 C83.0858968,19.1294601 83.0019168,19.0555522 82.9419312,18.9641751 C82.8819455,18.8701104 82.840622,18.7558891 82.8192937,18.6174796 C82.7979655,18.480414 82.7873014,18.327223 82.7873014,18.1538753 L82.7873014,14.4275713 L82.0194846,14.4275713 Z M91.8304772,19.8026943 L91.8304772,15.8358535 C91.8304772,15.6638495 91.813148,15.4905018 91.7771566,15.3131228 C91.7411652,15.1370875 91.6718484,14.9758338 91.5692062,14.8307055 C91.466564,14.6828896 91.3199323,14.5619493 91.1319772,14.4692285 C90.944022,14.3778514 90.6960812,14.330819 90.3908207,14.330819 C90.1708732,14.330819 89.9495926,14.3630698 89.7296451,14.4329464 C89.5096976,14.5014792 89.3097453,14.5726996 89.1324542,14.6533264 C88.9258369,14.7447035 88.7272176,14.8495184 88.5352634,14.9637398 L88.4286221,14.4275713 L87.8420954,14.4275713 L87.8420954,19.8026943 L88.6099122,19.8026943 L88.6099122,15.5240964 C88.7805382,15.4233128 88.9578292,15.3346233 89.1431184,15.2539964 C89.2990811,15.182776 89.4737061,15.1182746 89.6656604,15.0618358 C89.8576146,15.0040532 90.0455697,14.97449 90.2308588,14.97449 C90.4081499,14.97449 90.5507825,15.0013656 90.6574237,15.0510855 C90.764065,15.1021492 90.8480449,15.1733696 90.9080306,15.2674342 C90.9680163,15.3588113 91.0093398,15.4743765 91.030668,15.6114421 C91.0519963,15.747164 91.0626604,15.9030425 91.0626604,16.0737027 L91.0626604,19.8026943 L91.8304772,19.8026943 Z M94.2299048,15.7229759 C94.3005546,15.5469406 94.3938656,15.4004685 94.5071719,15.2862472 C94.6204782,15.1733696 94.7511137,15.0873676 94.8964124,15.0336164 C95.0417111,14.9798651 95.1856767,14.9529895 95.3283094,14.9529895 C95.5695851,14.9529895 95.7802016,14.9879278 95.9574926,15.0564606 C96.1347836,15.1236497 96.2840813,15.1962138 96.4053857,15.2768407 C96.5400203,15.3682178 96.6573256,15.4757202 96.7573018,15.5993481 L96.7573018,16.3505215 C96.7573018,16.831595 96.6293323,17.1890407 96.3733934,17.420171 C96.1174544,17.6526451 95.8041958,17.769554 95.4349506,17.769554 C95.0657054,17.769554 94.7537798,17.6526451 94.5018399,17.420171 C94.2499,17.1890407 94.1232635,16.831595 94.1232635,16.3505215 C94.1232635,16.108641 94.1592549,15.8990112 94.2299048,15.7229759 L94.2299048,15.7229759 Z M94.421859,19.8981027 C94.4645154,19.9048216 94.512504,19.9115405 94.5658246,19.9155719 C94.6191452,19.9196032 94.6777979,19.920947 94.7417826,19.920947 L96.0854621,19.920947 C96.2347598,19.920947 96.3773924,19.9303534 96.512027,19.9464788 C96.6466615,19.9652917 96.7639669,19.9975425 96.863943,20.0472624 C96.9639191,20.098326 97.0439001,20.1682026 97.1038858,20.2622673 C97.1638714,20.3536444 97.1945308,20.4759284 97.1945308,20.6237443 C97.1945308,20.7742478 97.1505413,20.9032507 97.0612293,21.0147845 C96.9719172,21.1249745 96.8492798,21.2163516 96.693317,21.2862282 C96.5373542,21.3574486 96.3533981,21.4111998 96.1441147,21.4461381 C95.9348313,21.483764 95.7082187,21.5012332 95.466943,21.5012332 C95.2256672,21.5012332 95.0030536,21.4864516 94.8004353,21.4568884 C94.597817,21.4300128 94.423192,21.3843242 94.2778933,21.3198227 C94.1325946,21.2553213 94.0179553,21.1706631 93.9366414,21.067192 C93.8553275,20.9637208 93.814004,20.8347179 93.814004,20.6774955 C93.814004,20.5565553 93.8393313,20.4450215 93.8886528,20.3415504 C93.9379744,20.2380792 93.991295,20.1520773 94.0486147,20.0808569 C94.1192645,20.0015738 94.1979124,19.9316972 94.2832254,19.8671958 C94.3258819,19.8806336 94.3725374,19.8913838 94.421859,19.8981027 L94.421859,19.8981027 Z M93.6273818,21.7269883 C93.985963,21.9419932 94.5751557,22.0494957 95.3922941,22.0494957 C96.2174306,22.0494957 96.8439478,21.9097425 97.2745117,21.6342674 C97.7050757,21.3587924 97.9196911,20.9959716 97.9196911,20.5444613 C97.9196911,20.0996698 97.7810575,19.7758187 97.5037903,19.5769391 C97.2265232,19.375372 96.8172875,19.2745884 96.2774163,19.2745884 L94.944401,19.2745884 C94.6671338,19.2745884 94.4711805,19.2315875 94.3578742,19.1469293 C94.2445679,19.0595835 94.1872483,18.9453622 94.1872483,18.8029214 C94.1872483,18.5072896 94.4471863,18.3621613 94.9657292,18.3621613 L95.4349506,18.3621613 C95.7122178,18.3621613 95.9748218,18.3191603 96.2240957,18.2385335 C96.4733695,18.1552191 96.691984,18.0302475 96.8799392,17.8622749 C97.0678943,17.6943023 97.2198581,17.4779536 97.3331644,17.2159163 C97.4464707,16.9552229 97.5037903,16.6448095 97.5037903,16.2873638 L97.5037903,14.4275713 L96.9279277,14.4275713 L96.8212865,14.9637398 C96.6999821,14.8495184 96.5586825,14.7447035 96.3947216,14.6533264 C96.252089,14.5726996 96.081463,14.5014792 95.8828437,14.4329464 C95.6842245,14.3630698 95.4562788,14.330819 95.2003399,14.330819 C94.9870574,14.330819 94.772442,14.3724762 94.5551605,14.4531031 C94.337879,14.5364175 94.1432588,14.6640767 93.9686338,14.8360806 C93.7940088,15.0067408 93.6500431,15.2244332 93.5367368,15.4864705 C93.4234305,15.747164 93.3661108,16.0548897 93.3661108,16.4056165 C93.3661108,16.721405 93.4101003,16.9794109 93.4994124,17.1850094 C93.5887244,17.389264 93.6900336,17.5505177 93.8033399,17.6741456 C93.9313093,17.8165863 94.080607,17.9267763 94.251233,18.0074032 C94.1019353,18.0342788 93.9699668,18.0893738 93.8566605,18.1673131 C93.7566843,18.2345021 93.6660393,18.3258792 93.5847253,18.4481633 C93.5034114,18.5717911 93.4620879,18.7290135 93.4620879,18.9252054 C93.4620879,19.0448019 93.4794171,19.1523044 93.5154086,19.2423377 C93.5514,19.3310272 93.5900574,19.406279 93.6327139,19.4640615 C93.6820355,19.5352819 93.7433542,19.5903769 93.814004,19.6239714 C93.6793694,19.6978794 93.558065,19.7892565 93.4514238,19.9034778 C93.3594458,20.0029176 93.2754658,20.1252017 93.2008169,20.2689862 C93.1261681,20.4127707 93.0888437,20.5753682 93.0888437,20.7621537 C93.0888437,21.1908198 93.2688007,21.5119834 93.6273818,21.7269883 L93.6273818,21.7269883 Z" id="Fill-15" fill="#000000"></path>
        </g>
    </g>
</svg>